<?xml version="1.0" encoding="utf-8"?>
<!-- Generator: Adobe Illustrator 19.2.1, SVG Export Plug-In . SVG Version: 6.00 Build 0)  -->
<svg version="1.1" id="Layer_1" xmlns="http://www.w3.org/2000/svg" xmlns:xlink="http://www.w3.org/1999/xlink" x="0px" y="0px"
	 viewBox="0 0 365.6 75.9" style="enable-background:new 0 0 365.6 75.9;" xml:space="preserve">
<style type="text/css">
	.st0{fill:#E61E26;}
	.st1{fill:#FFFFFF;}
	.st2{fill:#929497;}
</style>
<g>
	<g>
		<path class="st0" d="M298.8,34h-21.5c0.4-3.2,1.3-6.6,9.8-11.1c6.3-3.3,8.5-4.8,8.5-8.6c0-4-2.7-6-7-6c-6.3,0-7.6,3.8-7.7,7.5
			h-2.9c0-7,4.2-9.9,10.7-9.9c7.5,0,9.9,4.5,9.9,8.5c0,4.8-3,6.8-6.9,8.9c-7.8,4.2-9.9,5.7-10.7,8h17.8V34z"/>
		<path class="st0" d="M324.8,20.3c0,9.9-4.8,14.3-11.6,14.3c-6.8,0-11.6-4.4-11.6-14.3c0-10,4.8-14.4,11.6-14.4
			C320,5.9,324.8,10.3,324.8,20.3z M304.6,20.3c0,6.9,2.1,11.9,8.6,11.9c6.5,0,8.6-4.9,8.6-11.9c0-7-2.1-11.9-8.6-11.9
			C306.7,8.4,304.6,13.3,304.6,20.3z"/>
		<path class="st0" d="M335,13.4h-8.6v-2.2h1.9c4.6,0,6.3-0.6,7.1-5.2h2.5V34H335V13.4z"/>
		<path class="st0" d="M362,13.1c-0.2-2.8-2.6-4.7-7.1-4.7c-5.5,0-8.4,3.3-8.7,12.2l0.1,0.1c1-1.9,3.5-5.1,8.6-5.1
			c6.4,0,10.7,3.4,10.7,9.6c0,6.3-4.8,9.5-10.7,9.5c-6.7,0-11.4-3.4-11.4-13.4c0-9.2,3.4-15.3,11.4-15.3c6.9,0,9.7,3.5,10,7.1H362z
			 M354.9,32.2c4.4,0,7.8-2.7,7.8-7.1c0-4-2.9-7.1-7.8-7.1c-6.5,0-8,4.3-8,7C346.9,28.4,349.2,32.2,354.9,32.2z"/>
	</g>
	<path class="st0" d="M0,63.4l10.1,0V64c0,1.3,0.3,2.2,0.9,2.6c0.6,0.4,1.9,0.7,3.9,0.7H28c1.3,0,2.2-0.2,2.7-0.6
		c0.5-0.4,0.8-1.1,0.8-2.1c0-1-0.3-1.7-0.9-2.2c-0.6-0.4-2-0.7-4-0.9L10.3,61c-4.1-0.1-6.8-0.9-8.2-2.3C0.7,57.3,0,54.7,0,51
		c0-1.9,0.2-3.5,0.5-4.8c0.4-1.2,1-2.3,1.8-3.1c1-0.9,2.3-1.6,3.9-2c1.6-0.4,4.2-0.6,7.8-0.6h15.7c3.9,0,6.7,0.7,8.4,2.1
		c1.7,1.4,2.6,3.7,2.6,6.9v0.7c0,0.2,0,0.6-0.1,1.2h-9.9v-0.1c0-1.1-0.3-1.9-0.8-2.5c-0.6-0.6-1.4-0.8-2.6-0.8H15.4
		c-2,0-3.3,0.2-3.9,0.6c-0.6,0.4-1,1.1-1,2.1s0.3,1.7,0.9,2.1c0.6,0.4,1.6,0.7,3.2,0.8l16.9,0.3c3.9,0.1,6.6,1,8.1,2.6
		c1.6,1.6,2.4,4.4,2.4,8.3c0,2.3-0.3,4.2-0.9,5.4c-0.6,1.3-1.6,2.4-2.9,3.3c-0.9,0.6-2.1,1-3.7,1.2C33,74.9,30.7,75,27.8,75H14.1
		c-5.6,0-9.4-0.6-11.3-1.9c-1.9-1.3-2.9-3.6-2.9-7.1c0-0.2,0-0.5,0-1C-0.1,64.6,0,64,0,63.4"/>
	<path class="st0" d="M45.6,40.9h10.3v20c0,2.3,0.5,3.8,1.5,4.6c1,0.8,3.3,1.2,6.8,1.2H70c2.9,0,4.8-0.4,5.8-1.2
		c1-0.8,1.5-2.3,1.5-4.5v-20h10.3v23.2c0,4-1.1,6.8-3.2,8.5c-2.1,1.6-5.8,2.5-11.1,2.5H61.8c-6.2,0-10.4-0.8-12.7-2.4
		c-2.3-1.6-3.5-4.5-3.5-8.6V40.9z"/>
	<path class="st0" d="M123.9,53L123.9,53c0-1.6-0.5-2.7-1.4-3.2c-0.9-0.6-3-0.8-6.3-0.8h-6c-3.5,0-5.8,0.4-6.8,1.3
		c-1,0.8-1.5,2.6-1.5,5.3v4.7c0,2.4,0.6,4.1,1.7,5c1.1,0.9,3.3,1.4,6.6,1.4h6c3,0,5-0.3,6.1-0.8c1.1-0.5,1.7-1.5,1.7-2.8
		c0-0.2,0-0.5-0.1-0.9V62h-12.1v-6.8h22.9v11.1c0,3.2-1.2,5.5-3.5,6.8c-2.4,1.3-6.4,2-12.3,2h-11.5c-3.5,0-6.1-0.2-7.8-0.6
		c-1.7-0.4-3.1-1-4.2-1.9c-1.4-1.1-2.4-2.4-3-4c-0.6-1.6-0.9-3.5-0.9-5.9v-9.2c0-4.8,1.2-8.2,3.4-10.1c2.3-1.9,6.4-2.9,12.4-2.9
		h11.5c3.7,0,6.5,0.2,8.2,0.5c1.8,0.3,3.2,0.9,4.2,1.7c1,0.8,1.8,1.9,2.3,3.3c0.5,1.4,0.7,3.1,0.7,5.2v1.2c0,0.3,0,0.5,0,0.7
		L123.9,53z"/>
	<path class="st0" d="M152.7,60.9h13L159.1,49L152.7,60.9z M145.5,74.6h-11.2l18.4-33.7h13.1L184,74.6h-11.3l-3.3-5.6h-20.6
		L145.5,74.6z"/>
	<path class="st0" d="M213.6,49.3h-16.3v8.3h16.3c1.4,0,2.3-0.3,2.9-1c0.6-0.6,0.8-1.8,0.8-3.5c0-1.3-0.3-2.3-0.9-2.9
		C215.9,49.6,214.9,49.3,213.6,49.3 M214,40.9c5.3,0,9,0.8,10.9,2.4c1.9,1.6,2.9,4.5,2.9,8.7c0,2.9-0.4,5.1-1.3,6.5
		c-0.9,1.4-2.3,2.4-4.3,2.9c1.8,0.4,3.1,1.2,4,2.2c0.9,1.1,1.3,2.5,1.3,4.2v6.9h-10.3v-5.1c0-1.3-0.3-2.2-0.9-2.7
		c-0.6-0.5-1.9-0.7-3.7-0.7h-15.3v8.6H187V40.9H214z"/>
	<polygon class="st1" points="351.8,75.2 334.9,50.3 334.9,75.2 324.9,75.2 324.9,41.5 339.2,41.5 355.2,65.1 355.1,41.5 
		365.2,41.5 365.2,75.2 	"/>
	<path class="st1" d="M310.8,60.8c0,2.4-0.6,4.1-1.7,5c-1.1,0.9-3.3,1.4-6.6,1.4h-6l-0.3,0c-3.3,0-5.5-0.5-6.6-1.4
		c-1.1-0.9-1.7-2.6-1.7-5v-4.7c0-2.7,0.5-4.5,1.5-5.4c1-0.8,3.3-1.3,6.8-1.3l-2,0h8.2c3.5,0,5.8,0.4,6.8,1.3c1,0.9,1.5,2.7,1.5,5.4
		V60.8z M317.9,43.9c-2.3-1.9-6.5-2.9-12.5-2.9h-11.5l-0.5,0c-6,0-10.2,1-12.5,2.9c-2.3,1.9-3.4,5.3-3.4,10.1v9.1
		c0,2.4,0.3,4.4,0.9,5.9c0.6,1.6,1.6,2.9,3,4c1.2,0.9,2.6,1.6,4.3,1.9c1.7,0.4,4.3,0.6,7.8,0.6l0.5,0h11.5c3.5,0,6.1-0.2,7.8-0.6
		c1.7-0.4,3.1-1,4.3-1.9c1.4-1.1,2.3-2.4,3-4c0.6-1.6,0.9-3.5,0.9-5.9V54C321.3,49.2,320.1,45.8,317.9,43.9"/>
	<path class="st1" d="M263.7,53.6v-0.3c0-1.3-0.4-2.3-1.3-2.9c-0.9-0.6-2.3-0.9-4.1-0.9H250c-3.5,0-5.8,0.4-6.8,1.3
		c-1,0.9-1.5,2.6-1.5,5.4v4.6c0,2.4,0.6,4.1,1.7,5c1.1,0.9,3.3,1.3,6.6,1.3h6c3.3,0,5.4-0.3,6.4-1c1-0.6,1.5-1.9,1.5-3.7v-0.4h10.4
		c0,0,0,0.1,0,0.2c0.1,1,0.1,1.7,0.1,2.2c0,2.2-0.3,4-0.8,5.4c-0.5,1.4-1.4,2.5-2.5,3.4c-1.1,0.8-2.6,1.4-4.4,1.8
		c-1.8,0.4-4.5,0.5-8.1,0.5h-11.5c-3.5,0-6.1-0.2-7.8-0.6c-1.7-0.4-3.1-1-4.3-1.9c-1.4-1.1-2.3-2.4-3-4c-0.6-1.6-0.9-3.5-0.9-5.9
		v-9.1c0-4.9,1.2-8.2,3.5-10.1c2.3-1.9,6.5-2.9,12.5-2.9h11.5c3.7,0,6.4,0.2,8.2,0.5c1.7,0.3,3.1,0.9,4.1,1.7
		c1.1,0.8,1.9,1.9,2.4,3.3c0.5,1.4,0.8,3.1,0.8,5.2v1.2c0,0.3,0,0.5-0.1,0.8H263.7z"/>
	<g>
		<path class="st2" d="M8.9,29.8c0,1.7-0.5,4.5-4.4,4.5c-2.2,0-4.4-1.2-4.4-4.1v-1.1h2.6v0.6c0,1.3,0.3,2.2,1.7,2.2
			C6,31.9,6,30.6,6,29.7v-8.9h2.9V29.8z"/>
		<path class="st2" d="M20.2,34h-2.5v-1.3h-0.1c-0.7,1.1-1.8,1.6-2.9,1.6c-2.8,0-3.5-1.6-3.5-3.9v-5.9h2.6v5.4
			c0,1.6,0.5,2.4,1.7,2.4c1.4,0,2-0.8,2-2.7v-5h2.6V34z"/>
		<path class="st2" d="M22.3,24.4h2.5v1.3h0.1c0.7-1.1,1.8-1.6,2.9-1.6c2.8,0,3.5,1.6,3.5,3.9V34h-2.6v-5.4c0-1.6-0.5-2.4-1.7-2.4
			c-1.4,0-2,0.8-2,2.7v5h-2.6V24.4z"/>
		<path class="st2" d="M35.6,29.9c0.1,1.7,0.9,2.4,2.3,2.4c1.1,0,1.9-0.6,2.1-1.2h2.3c-0.7,2.3-2.3,3.2-4.5,3.2c-3,0-4.9-2.1-4.9-5
			c0-2.9,2-5.1,4.9-5.1c3.3,0,4.8,2.7,4.6,5.7H35.6z M39.8,28.2c-0.2-1.3-0.8-2-2.1-2c-1.7,0-2.1,1.3-2.2,2H39.8z"/>
		<path class="st2" d="M55.1,34h-2.6v-8.4h-3.3v-2c1.8,0,3.5-0.6,3.8-2.6h2.1V34z"/>
		<path class="st2" d="M61.6,26.3c1.1,0.1,2.8-0.1,2.8-1.6c0-1.1-0.9-1.7-1.8-1.7c-1.3,0-2,1-2,2.3h-2.5c0.1-2.6,1.8-4.5,4.5-4.5
			c2.1,0,4.3,1.3,4.3,3.6c0,1.2-0.6,2.3-1.8,2.6v0c1.4,0.3,2.3,1.5,2.3,2.9c0,2.7-2.3,4.3-4.8,4.3c-2.9,0-4.9-1.7-4.8-4.7h2.5
			c0.1,1.4,0.8,2.6,2.3,2.6c1.2,0,2.1-0.8,2.1-2c0-2-1.7-1.9-3-1.9V26.3z"/>
		<path class="st2" d="M69.1,27.8h5.6v2.3h-5.6V27.8z"/>
		<path class="st2" d="M81.6,34H79v-8.4h-3.3v-2c1.8,0,3.5-0.6,3.8-2.6h2.1V34z"/>
		<path class="st2" d="M91.2,24.4c-0.2-0.9-0.8-1.6-1.7-1.6c-1.9,0-2.4,2.5-2.5,3.9l0,0c0.7-1,1.7-1.4,2.9-1.4c1.1,0,2.2,0.5,3,1.3
			c0.7,0.8,1,1.9,1,2.9c0,2.6-1.8,4.7-4.5,4.7c-3.9,0-5-3.4-5-6.7c0-3.2,1.4-6.8,5.1-6.8c2.2,0,3.9,1.3,4.2,3.6H91.2z M87.2,29.7
			c0,1.2,0.8,2.4,2.1,2.4c1.3,0,2-1.2,2-2.4c0-1.2-0.6-2.4-2-2.4C87.9,27.3,87.2,28.4,87.2,29.7z"/>
		<path class="st2" d="M95.5,31.2h2.9V34c0,1.7-1.3,2.8-2.9,3.1v-1.3c0.8-0.1,1.3-0.9,1.3-1.7h-1.3V31.2z"/>
		<path class="st2" d="M107.6,29.6c0,1.8,1.4,2.4,2.9,2.4c1,0,2.6-0.3,2.6-1.6c0-1.4-2-1.7-3.9-2.2c-2-0.5-3.9-1.3-3.9-3.8
			c0-2.7,2.6-4,4.9-4c2.8,0,5.3,1.2,5.3,4.3h-2.8c-0.1-1.6-1.2-2-2.6-2c-0.9,0-2,0.4-2,1.5c0,1,0.6,1.1,3.9,2c1,0.2,3.9,0.9,3.9,3.9
			c0,2.4-1.9,4.2-5.5,4.2c-2.9,0-5.7-1.4-5.6-4.7H107.6z"/>
		<path class="st2" d="M117.4,27.4c0.1-2.5,2.4-3.2,4.5-3.2c1.9,0,4.2,0.4,4.2,2.7v5c0,0.9,0.1,1.7,0.3,2.1h-2.7
			c-0.1-0.3-0.2-0.6-0.2-0.9c-0.8,0.9-2.1,1.2-3.2,1.2c-1.8,0-3.3-0.9-3.3-2.9c0-2.2,1.6-2.7,3.3-2.9c1.6-0.2,3.1-0.2,3.1-1.3
			c0-1.1-0.8-1.3-1.7-1.3c-1,0-1.6,0.4-1.7,1.4H117.4z M123.4,29.3c-0.4,0.4-1.4,0.4-2.2,0.6c-0.8,0.2-1.6,0.4-1.6,1.4
			c0,1,0.8,1.2,1.6,1.2c2.1,0,2.1-1.6,2.1-2.2V29.3z"/>
		<path class="st2" d="M128.2,24.4h2.5v1.3h0.1c0.7-1.1,1.8-1.6,2.9-1.6c2.8,0,3.5,1.6,3.5,3.9V34h-2.6v-5.4c0-1.6-0.5-2.4-1.7-2.4
			c-1.4,0-2,0.8-2,2.7v5h-2.6V24.4z"/>
		<path class="st2" d="M144.3,20.8h9.3v2.4h-6.4v3.1h5.5v2.3h-5.5V34h-2.9V20.8z"/>
		<path class="st2" d="M154.6,24.4h2.5v1.8h0c0.5-1.2,1.8-2,3.1-2c0.2,0,0.4,0,0.6,0.1v2.4c-0.2-0.1-0.6-0.1-0.9-0.1
			c-1.9,0-2.6,1.4-2.6,3.1V34h-2.6V24.4z"/>
		<path class="st2" d="M161.8,27.4c0.1-2.5,2.3-3.2,4.5-3.2c1.9,0,4.2,0.4,4.2,2.7v5c0,0.9,0.1,1.7,0.3,2.1h-2.7
			c-0.1-0.3-0.2-0.6-0.2-0.9c-0.8,0.9-2.1,1.2-3.2,1.2c-1.8,0-3.3-0.9-3.3-2.9c0-2.2,1.6-2.7,3.3-2.9c1.6-0.2,3.1-0.2,3.1-1.3
			c0-1.1-0.8-1.3-1.7-1.3c-1,0-1.6,0.4-1.7,1.4H161.8z M167.9,29.3c-0.4,0.4-1.4,0.4-2.2,0.6c-0.8,0.2-1.6,0.4-1.6,1.4
			c0,1,0.8,1.2,1.6,1.2c2.1,0,2.1-1.6,2.1-2.2V29.3z"/>
		<path class="st2" d="M172.6,24.4h2.5v1.3h0.1c0.7-1.1,1.8-1.6,2.9-1.6c2.8,0,3.5,1.6,3.5,3.9V34H179v-5.4c0-1.6-0.5-2.4-1.7-2.4
			c-1.4,0-2,0.8-2,2.7v5h-2.6V24.4z"/>
		<path class="st2" d="M190.2,27.8c-0.2-1.1-0.9-1.6-1.9-1.6c-1.7,0-2.2,1.7-2.2,3.1c0,1.4,0.5,3,2.2,3c1.2,0,1.9-0.8,2.1-1.9h2.5
			c-0.3,2.5-2.1,3.9-4.6,3.9c-2.9,0-4.8-2-4.8-4.9c0-3,1.8-5.2,4.9-5.2c2.3,0,4.3,1.2,4.5,3.6H190.2z"/>
		<path class="st2" d="M197.1,23h-2.6v-2.2h2.6V23z M194.4,24.4h2.6V34h-2.6V24.4z"/>
		<path class="st2" d="M201.2,30.9c0,1.1,1,1.6,2,1.6c0.8,0,1.7-0.3,1.7-1.2c0-0.8-1.1-1.1-3-1.5c-1.5-0.3-3-0.9-3-2.6
			c0-2.4,2.1-3.1,4.2-3.1c2.1,0,4,0.7,4.2,3.1h-2.5c-0.1-1-0.9-1.3-1.8-1.3c-0.6,0-1.5,0.1-1.5,0.9c0,0.9,1.5,1.1,3,1.4
			c1.5,0.4,3,0.9,3,2.7c0,2.5-2.2,3.3-4.4,3.3c-2.2,0-4.4-0.8-4.5-3.4H201.2z"/>
		<path class="st2" d="M215.6,27.8c-0.2-1.1-0.9-1.6-1.9-1.6c-1.7,0-2.2,1.7-2.2,3.1c0,1.4,0.5,3,2.2,3c1.2,0,1.9-0.8,2.1-1.9h2.5
			c-0.3,2.5-2.1,3.9-4.6,3.9c-2.9,0-4.8-2-4.8-4.9c0-3,1.8-5.2,4.9-5.2c2.3,0,4.3,1.2,4.5,3.6H215.6z"/>
		<path class="st2" d="M224.4,24.2c3,0,5,2,5,5.1c0,3-1.9,5-5,5c-3,0-4.9-2-4.9-5C219.5,26.2,221.4,24.2,224.4,24.2z M224.4,32.3
			c1.8,0,2.3-1.5,2.3-3.1c0-1.5-0.5-3.1-2.3-3.1c-1.8,0-2.3,1.5-2.3,3.1C222.1,30.7,222.6,32.3,224.4,32.3z"/>
	</g>
</g>
</svg>
